<?xml version="1.0" standalone="no"?>
<!DOCTYPE svg PUBLIC "-//W3C//DTD SVG 20010904//EN"
 "http://www.w3.org/TR/2001/REC-SVG-20010904/DTD/svg10.dtd">
<svg version="1.0" xmlns="http://www.w3.org/2000/svg"
 width="800.000000pt" height="800.000000pt" viewBox="0 0 800.000000 800.000000"
 preserveAspectRatio="xMidYMid meet">

<g transform="translate(0.000000,800.000000) scale(0.100000,-0.100000)"
fill="#000000" stroke="none">
<path d="M3700 7614 c-654 -47 -1249 -247 -1785 -599 -937 -615 -1550 -1631
-1647 -2728 -18 -204 -15 -589 6 -767 105 -880 510 -1676 1158 -2277 514 -476
1159 -801 1833 -922 243 -43 381 -55 660 -55 284 -1 391 8 635 50 1425 245
2584 1321 2939 2731 67 265 101 520 104 793 2 173 2 176 -26 235 -37 78 -78
121 -152 156 -50 24 -73 29 -136 29 -64 0 -85 -5 -137 -30 -69 -35 -125 -92
-155 -159 -17 -38 -22 -78 -29 -221 -21 -463 -112 -838 -294 -1219 -293 -612
-777 -1107 -1381 -1410 -169 -84 -394 -172 -541 -210 -42 -11 -104 -27 -137
-36 -77 -20 -297 -52 -445 -65 -513 -44 -1076 59 -1548 285 -783 375 -1352
1040 -1605 1875 -88 289 -121 528 -121 870 0 264 11 383 54 605 85 432 279
864 554 1229 438 581 1090 994 1797 1140 801 166 1614 12 2294 -431 176 -115
428 -321 504 -412 l42 -50 -348 -3 c-392 -3 -394 -4 -483 -84 -65 -59 -100
-141 -100 -235 0 -64 5 -85 30 -137 35 -69 92 -125 159 -156 46 -21 50 -21
969 -24 l922 -2 0 902 c0 937 -1 944 -40 1018 -26 48 -88 105 -145 132 -123
58 -279 28 -369 -72 -21 -23 -48 -63 -60 -89 -20 -44 -21 -64 -26 -449 l-5
-403 -75 78 c-244 253 -527 473 -830 646 -152 86 -452 227 -483 227 -7 0 -25
7 -40 15 -42 22 -258 90 -392 124 -147 37 -310 67 -475 87 -120 15 -535 26
-650 18z"/>
</g>
</svg>
