<?xml version="1.0" standalone="no"?>
<!DOCTYPE svg PUBLIC "-//W3C//DTD SVG 20010904//EN"
 "http://www.w3.org/TR/2001/REC-SVG-20010904/DTD/svg10.dtd">
<svg version="1.0" xmlns="http://www.w3.org/2000/svg"
 width="800.000000pt" height="800.000000pt" viewBox="0 0 800.000000 800.000000"
 preserveAspectRatio="xMidYMid meet">

<g transform="translate(0.000000,800.000000) scale(0.100000,-0.100000)"
fill="#000000" stroke="none">
<path d="M3987 7664 c-1 -1 -58 -4 -127 -7 -301 -14 -645 -122 -917 -288 -435
-266 -771 -722 -892 -1209 -44 -181 -53 -259 -59 -550 l-7 -285 -67 -7 c-271
-26 -509 -235 -578 -504 -20 -75 -20 -118 -20 -1828 0 -1951 -4 -1818 71
-1974 59 -121 178 -240 299 -299 162 -79 -16 -73 2292 -73 2317 1 2157 -4
2314 75 184 93 300 236 349 430 l25 98 0 1747 0 1748 -26 88 c-38 132 -76 197
-174 294 -119 120 -247 183 -398 198 l-67 7 -6 285 c-7 298 -9 314 -57 525
-80 343 -252 658 -506 924 -72 75 -281 243 -379 304 -244 151 -541 255 -817
286 -83 9 -248 19 -253 15z m253 -690 c504 -82 917 -457 1045 -949 37 -142 45
-229 45 -476 l0 -229 -1336 0 -1336 0 5 278 c4 231 8 291 25 362 44 184 99
314 198 462 220 330 583 535 1014 572 73 6 238 -4 340 -20z m1758 -2328 c5 -5
3 -3328 -2 -3333 -5 -5 -3998 -4 -4003 1 -3 3 -6 2211 -4 3038 l1 298 248 2
c340 4 3755 -2 3760 -6z"/>
<path d="M3851 3634 c-134 -29 -279 -119 -371 -232 -56 -68 -69 -90 -103 -172
-37 -91 -46 -141 -47 -250 0 -116 17 -188 71 -298 95 -194 289 -333 508 -364
135 -19 324 23 441 99 81 52 191 171 233 250 97 187 104 417 17 598 -134 280
-448 435 -749 369z"/>
</g>
</svg>
