<?xml version="1.0" standalone="no"?>
<!DOCTYPE svg PUBLIC "-//W3C//DTD SVG 20010904//EN"
 "http://www.w3.org/TR/2001/REC-SVG-20010904/DTD/svg10.dtd">
<svg version="1.0" xmlns="http://www.w3.org/2000/svg"
 width="800.000000pt" height="800.000000pt" viewBox="0 0 800.000000 800.000000"
 preserveAspectRatio="xMidYMid meet">

<g transform="translate(0.000000,800.000000) scale(0.100000,-0.100000)"
fill="#000000" stroke="none">
<path d="M3740 7934 c-19 -2 -91 -9 -160 -15 -564 -48 -1200 -248 -1694 -534
-121 -70 -312 -194 -391 -255 -33 -26 -81 -63 -108 -83 -186 -141 -435 -390
-609 -608 -208 -259 -401 -599 -517 -911 -130 -347 -188 -654 -197 -1038 -7
-259 7 -427 55 -667 121 -599 436 -1176 914 -1669 l107 -112 -10 -68 c-25
-175 -93 -331 -205 -470 -82 -104 -167 -182 -385 -357 -399 -321 -532 -510
-534 -757 -1 -88 1 -100 32 -162 38 -78 86 -120 169 -150 80 -28 209 -54 332
-69 135 -15 541 -6 671 15 441 72 851 204 1250 402 274 136 470 258 803 498
l40 29 151 -21 c263 -37 404 -45 681 -39 143 3 287 10 320 16 33 5 105 15 160
21 203 22 539 99 774 177 1368 451 2355 1546 2546 2822 35 238 41 668 11 886
-63 461 -204 861 -449 1272 -216 363 -558 738 -924 1016 -626 474 -1410 765
-2229 826 -127 10 -517 13 -604 5z m658 -629 c616 -64 1162 -257 1650 -584
253 -169 519 -410 695 -631 150 -188 318 -462 393 -641 19 -46 39 -93 44 -104
20 -39 88 -273 114 -385 46 -207 59 -358 53 -615 -8 -314 -32 -456 -124 -740
-176 -539 -536 -1027 -1038 -1405 -217 -163 -566 -360 -750 -423 -16 -5 -35
-13 -40 -18 -20 -15 -293 -100 -445 -138 -320 -81 -586 -112 -945 -112 -272
-1 -431 10 -625 42 -202 34 -239 24 -407 -107 -365 -286 -906 -563 -1341 -689
-214 -61 -583 -122 -687 -113 l-36 3 108 86 c477 382 712 778 753 1267 9 118
3 181 -24 246 -9 22 -91 111 -209 228 -107 106 -224 231 -261 278 -258 325
-458 735 -540 1110 -62 283 -76 638 -36 902 64 418 206 783 441 1128 119 176
199 271 363 435 266 265 518 446 851 613 421 210 829 323 1355 375 108 11 555
6 688 -8z"/>
</g>
</svg>
