<?xml version="1.0" standalone="no"?>
<!DOCTYPE svg PUBLIC "-//W3C//DTD SVG 20010904//EN"
 "http://www.w3.org/TR/2001/REC-SVG-20010904/DTD/svg10.dtd">
<svg version="1.0" xmlns="http://www.w3.org/2000/svg"
 width="800.000000pt" height="800.000000pt" viewBox="0 0 800.000000 800.000000"
 preserveAspectRatio="xMidYMid meet">

<g transform="translate(0.000000,800.000000) scale(0.100000,-0.100000)"
fill="#000000" stroke="none">
<path d="M1770 6849 c-494 -45 -1004 -313 -1298 -684 -31 -38 -58 -72 -61 -75
-8 -7 -46 -61 -95 -134 -57 -86 -162 -312 -202 -433 -125 -383 -123 -815 5
-1196 29 -85 34 -97 90 -221 173 -381 529 -732 930 -919 66 -30 306 -117 325
-117 2 0 6 48 9 108 8 126 29 260 64 392 14 52 27 104 30 115 4 17 -6 24 -60
43 -170 61 -323 159 -463 297 -207 204 -334 459 -371 740 -79 617 288 1194
882 1388 199 65 125 62 1590 62 1235 0 1337 -1 1425 -18 542 -102 956 -520
1045 -1056 25 -149 17 -379 -18 -513 -114 -436 -428 -776 -842 -912 -188 -62
-151 -59 -992 -63 l-772 -4 -56 -77 c-111 -152 -185 -356 -185 -513 l0 -49
863 0 c513 0 898 4 952 10 141 16 377 75 480 120 22 10 78 34 125 55 233 101
497 308 673 525 218 271 369 621 418 970 15 115 13 389 -6 515 -82 565 -407
1060 -895 1365 -164 103 -391 197 -570 235 -237 51 -139 48 -1580 50 -740 2
-1388 -1 -1440 -6z"/>
<path d="M3457 4915 c-346 -48 -673 -187 -939 -401 -395 -318 -640 -741 -714
-1235 -20 -138 -20 -401 1 -544 98 -664 530 -1230 1140 -1491 207 -89 388
-134 615 -154 83 -7 565 -9 1435 -7 1478 4 1386 -1 1669 84 201 60 383 148
558 269 175 121 361 309 477 482 39 57 151 249 151 258 0 2 13 33 30 68 16 36
43 107 59 158 60 186 61 196 61 616 0 380 0 389 -25 479 -136 510 -479 946
-940 1198 -168 92 -419 182 -435 156 -4 -7 -11 -59 -15 -115 -7 -107 -45 -311
-76 -411 -10 -33 -19 -67 -19 -75 0 -10 29 -26 82 -45 164 -60 314 -159 455
-300 179 -180 299 -407 350 -663 26 -131 23 -366 -7 -497 -64 -287 -208 -529
-420 -709 -182 -154 -379 -248 -615 -292 -95 -18 -170 -19 -1425 -19 -1467 0
-1392 -3 -1601 65 -419 137 -754 503 -849 925 -31 136 -38 373 -16 501 57 332
238 625 506 824 99 73 292 170 400 200 171 47 219 50 991 50 l725 0 51 68 c27
37 64 92 80 122 62 112 113 292 113 401 l0 49 -877 -1 c-670 -1 -901 -4 -976
-14z"/>
</g>
</svg>
