<?xml version="1.0" standalone="no"?>
<!DOCTYPE svg PUBLIC "-//W3C//DTD SVG 20010904//EN"
 "http://www.w3.org/TR/2001/REC-SVG-20010904/DTD/svg10.dtd">
<svg version="1.0" xmlns="http://www.w3.org/2000/svg"
 width="800.000000pt" height="800.000000pt" viewBox="0 0 800.000000 800.000000"
 preserveAspectRatio="xMidYMid meet">

<g transform="translate(0.000000,800.000000) scale(0.100000,-0.100000)"
fill="#000000" stroke="none">
<path d="M2103 6249 c-586 -56 -1092 -458 -1279 -1016 -57 -169 -69 -252 -68
-468 1 -165 5 -218 23 -302 70 -333 259 -645 516 -854 l64 -52 -90 -51 c-483
-277 -826 -724 -959 -1251 -32 -124 -60 -324 -60 -421 l0 -64 248 2 247 3 7
104 c45 678 556 1245 1233 1367 148 26 385 24 532 -4 681 -134 1168 -686 1217
-1381 3 -40 7 -76 10 -79 3 -3 113 -7 245 -10 l239 -5 6 44 c3 24 8 77 11 118
12 155 71 366 144 511 95 191 264 397 430 525 162 124 412 233 634 277 144 28
385 30 527 5 315 -57 577 -194 800 -417 261 -260 400 -560 439 -944 5 -54 12
-101 15 -103 3 -3 113 -7 246 -10 l240 -4 0 58 c0 150 -50 421 -107 588 -100
290 -258 542 -482 766 -131 130 -245 218 -403 312 l-108 64 103 66 c327 210
726 552 1035 890 198 215 212 232 212 252 0 42 -431 493 -655 685 -60 52 -114
100 -120 106 -5 6 -46 40 -90 75 -567 461 -1048 661 -1491 619 -214 -20 -373
-63 -546 -150 -667 -336 -985 -1085 -761 -1795 68 -216 190 -412 363 -586 63
-64 129 -126 145 -139 25 -18 27 -24 15 -31 -8 -5 -62 -37 -120 -72 -144 -85
-246 -163 -369 -282 -122 -118 -200 -212 -291 -351 l-66 -102 -43 69 c-176
284 -445 541 -733 698 -43 24 -78 46 -78 49 0 4 19 21 41 37 74 54 244 239
308 335 257 384 323 851 184 1290 -31 97 -129 296 -190 385 -215 313 -558 543
-925 619 -80 16 -272 37 -328 35 -19 -1 -72 -5 -117 -10z m372 -518 c313 -77
562 -289 686 -585 56 -134 72 -222 72 -391 0 -117 -5 -156 -26 -236 -64 -245
-208 -448 -412 -584 -95 -63 -163 -95 -284 -132 -80 -25 -98 -27 -276 -27
-177 1 -196 3 -272 27 -180 57 -332 152 -455 286 -104 111 -176 240 -225 397
-26 84 -27 100 -28 279 0 182 1 194 29 280 34 107 93 228 148 304 161 222 422
374 698 405 74 9 268 -5 345 -23z m3480 -11 c326 -103 778 -398 1114 -725 67
-66 146 -146 174 -178 l50 -58 -119 -120 c-425 -429 -938 -766 -1290 -850
-296 -70 -639 41 -869 283 -92 95 -142 168 -192 275 -185 402 -74 899 265
1178 255 211 584 284 867 195z"/>
</g>
</svg>
