<?xml version="1.0" standalone="no"?>
<!DOCTYPE svg PUBLIC "-//W3C//DTD SVG 20010904//EN"
 "http://www.w3.org/TR/2001/REC-SVG-20010904/DTD/svg10.dtd">
<svg version="1.0" xmlns="http://www.w3.org/2000/svg"
 width="800.000000pt" height="800.000000pt" viewBox="0 0 800.000000 800.000000"
 preserveAspectRatio="xMidYMid meet">

<g transform="translate(0.000000,800.000000) scale(0.100000,-0.100000)"
fill="#000000" stroke="none">
<path d="M1960 6006 c-3 -2 -59 -9 -125 -16 -474 -43 -893 -235 -1228 -559
-342 -332 -550 -763 -598 -1241 -18 -183 5 -491 51 -668 196 -769 807 -1341
1587 -1487 129 -24 391 -36 527 -24 489 41 959 259 1401 650 l94 82 -45 56
c-187 234 -357 482 -472 691 -23 41 -46 81 -51 89 -6 10 -18 3 -51 -33 -63
-68 -229 -212 -328 -284 -108 -78 -319 -183 -434 -216 -353 -101 -714 -13
-976 238 -143 137 -236 299 -284 493 -31 125 -31 331 0 456 48 194 141 356
284 493 262 251 622 339 976 238 123 -35 331 -141 460 -234 256 -185 545 -515
777 -887 43 -70 91 -141 106 -157 14 -17 48 -71 73 -121 59 -111 191 -310 289
-433 319 -398 699 -719 1072 -902 219 -108 403 -166 630 -200 256 -38 294 -37
605 6 423 60 818 260 1130 573 272 273 451 601 537 985 21 94 26 145 30 339 7
305 -16 486 -92 714 -243 727 -921 1274 -1675 1348 -659 65 -1261 -155 -1838
-671 l-44 -39 71 -88 c146 -181 298 -406 426 -632 37 -66 69 -121 70 -122 1
-2 44 38 96 88 455 440 922 575 1376 399 117 -45 196 -96 299 -194 153 -144
246 -302 296 -503 33 -131 31 -341 -4 -473 -50 -187 -142 -343 -280 -476 -190
-182 -420 -275 -683 -277 -176 -1 -308 31 -490 117 -325 155 -634 445 -910
855 -50 75 -113 175 -140 224 -27 48 -62 103 -77 122 -16 19 -52 78 -80 132
-140 268 -315 513 -530 746 -114 123 -354 325 -503 423 -325 213 -718 349
-1070 369 -55 3 -134 8 -175 11 -42 3 -78 3 -80 0z"/>
</g>
</svg>
