<?xml version="1.0" standalone="no"?>
<!DOCTYPE svg PUBLIC "-//W3C//DTD SVG 20010904//EN"
 "http://www.w3.org/TR/2001/REC-SVG-20010904/DTD/svg10.dtd">
<svg version="1.0" xmlns="http://www.w3.org/2000/svg"
 width="800.000000pt" height="800.000000pt" viewBox="0 0 800.000000 800.000000"
 preserveAspectRatio="xMidYMid meet">

<g transform="translate(0.000000,800.000000) scale(0.100000,-0.100000)"
fill="#000000" stroke="none">
<path d="M2680 7004 c-107 -28 -219 -92 -300 -174 -84 -85 -129 -154 -168
-262 l-27 -73 -3 -1242 -2 -1242 -293 -3 -293 -3 -66 -33 c-120 -59 -183 -161
-183 -297 0 -136 63 -238 183 -297 l66 -33 293 -3 293 -3 0 -269 0 -268 -287
-4 -288 -3 -62 -29 c-73 -33 -144 -103 -176 -174 -31 -66 -31 -197 0 -264 29
-63 96 -134 158 -166 l50 -27 300 -5 300 -5 5 -410 5 -410 33 -68 c43 -87 117
-161 201 -201 61 -29 74 -31 176 -31 108 0 113 1 187 38 90 44 147 102 191
195 41 87 46 150 47 550 l0 342 535 0 c516 0 536 1 590 21 67 25 141 94 175
164 21 42 25 65 25 140 0 76 -4 99 -26 145 -51 110 -131 170 -249 189 -39 7
-262 11 -557 11 l-493 0 -1 23 c-1 38 -1 450 0 485 l1 32 928 0 c862 0 938 1
1077 20 235 30 436 90 632 186 408 202 724 534 900 944 54 125 77 202 108 363
150 775 -230 1546 -955 1940 -181 98 -378 163 -612 202 l-150 25 -1107 -1
c-926 0 -1115 -3 -1161 -15z m2235 -665 c400 -53 775 -359 914 -746 57 -155
74 -267 68 -448 -6 -197 -32 -307 -112 -471 -174 -357 -505 -597 -900 -654
-42 -6 -427 -10 -967 -10 l-897 0 -3 443 c-2 243 -2 769 0 1169 l3 728 577 2
c790 4 1222 0 1317 -13z"/>
</g>
</svg>
