<?xml version="1.0" standalone="no"?>
<!DOCTYPE svg PUBLIC "-//W3C//DTD SVG 20010904//EN"
 "http://www.w3.org/TR/2001/REC-SVG-20010904/DTD/svg10.dtd">
<svg version="1.0" xmlns="http://www.w3.org/2000/svg"
 width="800.000000pt" height="800.000000pt" viewBox="0 0 800.000000 800.000000"
 preserveAspectRatio="xMidYMid meet">

<g transform="translate(0.000000,800.000000) scale(0.100000,-0.100000)"
fill="#000000" stroke="none">
<path d="M3835 7319 c-92 -17 -231 -69 -313 -117 -230 -133 -390 -337 -469
-597 -25 -83 -27 -104 -27 -265 -1 -140 3 -188 17 -240 71 -251 208 -450 397
-577 103 -69 203 -118 307 -150 81 -24 102 -27 263 -27 140 0 188 3 240 18
259 72 462 215 595 420 65 100 96 166 132 285 25 79 27 100 27 266 0 168 -2
186 -27 270 -114 373 -404 639 -775 711 -82 16 -288 17 -367 3z"/>
<path d="M2684 4338 l1 -333 333 -3 332 -2 0 -1330 0 -1330 -335 0 -335 0 0
-330 0 -330 1335 0 1335 0 0 330 0 330 -335 0 -335 0 -2 1543 -3 1542 -28 56
c-32 66 -99 132 -165 162 -47 22 -49 22 -923 25 l-875 2 0 -332z"/>
</g>
</svg>
